<?xml version="1.0" encoding="UTF-8"?>
<svg xmlns="http://www.w3.org/2000/svg" viewBox="0 0 100 100">
  <defs>
    <style>
      .cls-1 {
        fill: #dc3545;
      }

      .cls-1, .cls-2 {
        stroke-width: 0px;
      }

      .cls-2 {
        fill: #fff;
      }
    </style>
  </defs>
  <g id="Layer_1" data-name="Layer 1" focusable="false">
    <circle class="cls-1" cx="50" cy="50" r="50"/>
    <path class="cls-2" d="M70.7,33.5v-12.4c0-2.3-1.9-4.1-4.1-4.1H21.1c-2.3,0-4.1,1.9-4.1,4.1v12.4c0,2.3,1.9,4.1,4.1,4.1h45.5c2.2,0,4.1-1.8,4.1-4.1ZM74.8,25.2v16.5c0,2.3-1.9,4.1-4.1,4.1h-20.7c-4.6,0-8.3,3.7-8.3,8.3v4.1c-2.3,0-4.1,1.9-4.1,4.1v16.5c0,2.3,1.9,4.1,4.1,4.1h8.3c2.3,0,4.1-1.9,4.1-4.1v-16.4c0-2.3-1.9-4.1-4.1-4.1v-4.1h20.7c6.8,0,12.4-5.6,12.4-12.4v-8.3c0-4.6-3.7-8.3-8.3-8.3Z"/>
  </g>
</svg>