<?xml version="1.0" encoding="UTF-8"?>
<svg xmlns="http://www.w3.org/2000/svg" viewBox="0 0 100 100">
  <defs>
    <style>
      .cls-1 {
        fill: #dc3545;
      }

      .cls-1, .cls-2 {
        stroke-width: 0px;
      }

      .cls-2 {
        fill: #fff;
      }
    </style>
  </defs>
  <g id="Layer_1" data-name="Layer 1" focusable="false">
    <circle class="cls-1" cx="50" cy="50" r="50"/>
    <path class="cls-2" d="M18.7,20.5c-3,0-5.5,2.5-5.5,5.5v7.4c0,1,.8,1.8,1.8,1.8h9.2v-9.2c0-3-2.5-5.5-5.5-5.5ZM42.6,68v-7h33.1v-29.4c0-6.1-5-11-11-11H26c1.2,1.5,1.9,3.4,1.9,5.5v42.4c0,4.5,4,8,8.6,7.3,3.6-.7,6.1-4.1,6.1-7.8ZM46.3,64.7v3.7c0,6.1-5,11-11,11h38.7c7.1,0,12.9-5.8,12.9-12.9,0-1-.8-1.8-1.8-1.8,0,0-38.8,0-38.8,0Z"/>
  </g>
</svg>